<svg width="1065" height="339" viewBox="0 0 1065 339" fill="none" xmlns="http://www.w3.org/2000/svg">
<path d="M150.372 167.708C153.944 167.708 156.289 170.275 157.405 175.411C158.745 180.546 159.414 188.36 159.414 198.854C159.414 209.571 158.745 217.497 157.405 222.632C156.065 227.544 153.721 230 150.372 230C138.315 230 126.929 227.767 116.212 223.302C105.718 218.837 97.792 211.245 92.4335 200.528C77.921 208.566 63.6318 212.585 49.5658 212.585C39.5187 209.459 30.3646 203.319 22.1037 194.165C14.066 185.011 10.0471 174.071 10.0471 161.345C10.0471 149.958 13.5078 139.799 20.4292 130.868C27.5738 121.938 34.4951 115.351 41.1932 111.109C47.8913 106.644 57.7151 100.839 70.6648 93.694C71.5578 92.1311 72.6742 90.2333 74.0138 88.0006C75.3534 85.5447 76.5814 83.7585 77.6978 82.6422C83.0562 80.856 90.759 79.0699 100.806 77.2837C111.077 75.2743 119.114 74.2696 124.919 74.2696L127.598 76.6139C128.045 101.397 129.161 125.063 130.948 147.614C131.617 154.981 133.403 160.228 136.306 163.354C139.432 166.257 144.12 167.708 150.372 167.708ZM48.896 150.628C53.5847 152.637 59.0548 153.642 65.3063 153.642C67.539 153.642 72.0044 153.195 78.7025 152.302C77.8094 146.051 77.1396 139.464 76.693 132.543C70.4415 135.222 65.083 137.901 60.6176 140.581C56.1523 143.26 52.245 146.609 48.896 150.628ZM275.03 167.708C278.602 167.708 280.946 170.275 282.063 175.411C283.402 180.546 284.072 188.36 284.072 198.854C284.072 209.571 283.402 217.497 282.063 222.632C280.723 227.544 278.379 230 275.03 230C264.313 230 255.382 228.995 248.237 226.986C241.316 224.753 235.846 222.186 231.827 219.283C228.031 216.381 223.901 212.585 219.435 207.896C209.612 214.594 197.89 219.953 184.271 223.972C170.651 227.991 159.376 230 150.445 230C147.096 230 144.752 227.544 143.412 222.632C142.073 217.497 141.403 209.571 141.403 198.854C141.403 188.36 142.073 180.546 143.412 175.411C144.529 170.275 146.873 167.708 150.445 167.708C169.646 167.708 184.605 166.368 195.322 163.689C189.071 150.516 178.689 143.93 164.176 143.93C162.613 141.697 161.162 136.562 159.823 128.524C158.483 120.263 158.036 113.118 158.483 107.09C180.587 97.4896 201.462 92.6893 221.11 92.6893C235.622 92.6893 247.121 95.7034 255.605 101.732C264.313 107.76 268.666 116.691 268.666 128.524C263.754 141.027 256.833 153.53 247.902 166.033C254.377 167.15 262.415 167.708 272.015 167.708H275.03ZM337.68 167.708C341.252 167.708 343.597 170.275 344.713 175.411C346.053 180.546 346.723 188.36 346.723 198.854C346.723 209.571 346.053 217.497 344.713 222.632C343.374 227.544 341.029 230 337.68 230H275.053C271.704 230 269.36 227.544 268.02 222.632C266.68 217.497 266.011 209.571 266.011 198.854C266.011 188.36 266.68 180.546 268.02 175.411C269.136 170.275 271.481 167.708 275.053 167.708H337.68ZM400.148 167.708C403.72 167.708 406.064 170.275 407.181 175.411C408.52 180.546 409.19 188.36 409.19 198.854C409.19 209.571 408.52 217.497 407.181 222.632C405.841 227.544 403.497 230 400.148 230H337.521C334.172 230 331.827 227.544 330.488 222.632C329.148 217.497 328.478 209.571 328.478 198.854C328.478 188.36 329.148 180.546 330.488 175.411C331.604 170.275 333.948 167.708 337.521 167.708H400.148ZM462.615 167.708C466.187 167.708 468.532 170.275 469.648 175.411C470.988 180.546 471.658 188.36 471.658 198.854C471.658 209.571 470.988 217.497 469.648 222.632C468.308 227.544 465.964 230 462.615 230H399.988C396.639 230 394.295 227.544 392.955 222.632C391.615 217.497 390.946 209.571 390.946 198.854C390.946 188.36 391.615 180.546 392.955 175.411C394.071 170.275 396.416 167.708 399.988 167.708H462.615ZM525.083 167.708C528.655 167.708 530.999 170.275 532.116 175.411C533.455 180.546 534.125 188.36 534.125 198.854C534.125 209.571 533.455 217.497 532.116 222.632C530.776 227.544 528.432 230 525.083 230H462.456C459.106 230 456.762 227.544 455.423 222.632C454.083 217.497 453.413 209.571 453.413 198.854C453.413 188.36 454.083 180.546 455.423 175.411C456.539 170.275 458.883 167.708 462.456 167.708H525.083ZM587.55 167.708C591.122 167.708 593.467 170.275 594.583 175.411C595.923 180.546 596.592 188.36 596.592 198.854C596.592 209.571 595.923 217.497 594.583 222.632C593.243 227.544 590.899 230 587.55 230H524.923C521.574 230 519.23 227.544 517.89 222.632C516.55 217.497 515.881 209.571 515.881 198.854C515.881 188.36 516.55 180.546 517.89 175.411C519.006 170.275 521.351 167.708 524.923 167.708H587.55ZM673.479 294.835C672.14 293.495 670.912 290.704 669.795 286.462C668.679 282.22 668.121 278.536 668.121 275.41V273.736C676.158 270.163 685.424 267.038 695.918 264.358C706.188 261.903 716.012 260.116 725.389 259C727.175 263.912 728.068 269.717 728.068 276.415C728.068 280.434 727.845 283.225 727.399 284.788C721.37 285.234 711.993 286.685 699.267 289.141C686.764 291.597 678.168 293.495 673.479 294.835ZM765.559 167.708C769.132 167.708 771.476 170.275 772.592 175.411C773.932 180.546 774.602 188.36 774.602 198.854C774.602 209.571 773.932 217.497 772.592 222.632C771.253 227.544 768.908 230 765.559 230C751.717 230 740.442 225.646 731.734 216.939C724.143 226.986 714.207 232.009 701.928 232.009C692.997 232.009 683.62 229.553 673.796 224.642C664.195 219.73 655.041 213.255 646.334 205.217C638.966 213.255 630.258 219.395 620.211 223.637C610.387 227.879 599.447 230 587.39 230C584.041 230 581.697 227.544 580.357 222.632C579.018 217.497 578.348 209.571 578.348 198.854C578.348 188.36 579.018 180.546 580.357 175.411C581.474 170.275 583.818 167.708 587.39 167.708C597.438 167.708 606.145 166.145 613.513 163.019C621.104 159.67 627.356 155.651 632.268 150.963C637.403 146.274 643.319 140.022 650.018 132.208C658.055 122.607 665.2 115.463 671.451 110.774C677.926 105.862 685.852 103.406 695.23 103.406C706.393 103.406 715.994 107.09 724.031 114.458C732.292 121.826 738.209 131.761 741.781 144.265C744.46 152.526 747.363 158.554 750.489 162.349C753.838 165.922 758.861 167.708 765.559 167.708ZM699.248 174.406C703.267 174.406 707.063 174.071 710.635 173.401C714.207 172.508 716.44 171.503 717.333 170.387C717.11 167.261 714.877 164.582 710.635 162.349C706.616 160.117 701.035 159 693.89 159C683.843 159 674.912 161.345 667.098 166.033C671.116 168.936 676.028 171.057 681.833 172.396C687.638 173.736 693.443 174.406 699.248 174.406ZM953.182 167.708C956.754 167.708 959.098 170.275 960.215 175.411C961.554 180.546 962.224 188.36 962.224 198.854C962.224 209.571 961.554 217.497 960.215 222.632C958.875 227.544 956.531 230 953.182 230C940.678 230 928.845 227.321 917.682 221.962C906.742 216.604 898.592 209.013 893.234 199.189C881.4 199.859 869.009 202.538 856.059 207.227C850.031 209.459 844.449 211.58 839.314 213.59C825.695 218.948 813.527 223.079 802.81 225.981C792.093 228.66 779.701 230 765.635 230C762.286 230 759.942 227.544 758.602 222.632C757.263 217.497 756.593 209.571 756.593 198.854C756.593 188.36 757.263 180.546 758.602 175.411C759.719 170.275 762.063 167.708 765.635 167.708C777.692 167.708 787.962 166.926 796.446 165.364C805.154 163.801 816.541 161.345 830.607 157.996L838.979 155.986L859.743 151.298C851.259 146.609 844.114 143.148 838.309 140.916C832.058 138.46 825.36 136.785 818.215 135.892C811.071 134.776 801.805 133.883 790.418 133.213L783.05 132.878L781.711 131.538C782.604 123.054 784.278 113.677 786.734 103.406C789.413 92.9126 791.981 85.2098 794.437 80.2979C799.126 79.628 803.479 79.2931 807.498 79.2931C815.759 79.2931 823.462 80.6328 830.607 83.312C837.751 85.768 845.008 89.3403 852.375 94.0289L864.097 101.732C882.852 113.788 897.029 122.719 906.63 128.524C916.23 134.106 923.04 136.897 927.059 136.897C926.389 148.06 925.273 157.549 923.71 165.364C931.971 166.926 941.795 167.708 953.182 167.708ZM855.39 299.995C850.701 298.209 844.561 294.636 836.97 289.278C829.379 284.143 824.132 279.677 821.229 275.882C821.899 272.979 823.574 268.961 826.253 263.825C829.155 258.913 832.393 254.336 835.965 250.094C839.537 246.075 842.663 243.843 845.342 243.396C847.798 242.95 851.482 244.066 856.394 246.745C861.529 249.424 866.218 252.662 870.46 256.457C874.926 260.476 877.382 263.602 877.828 265.835C878.721 269.184 876.154 274.989 870.125 283.25C864.32 291.734 859.408 297.316 855.39 299.995ZM980.264 36.3403C978.925 35.0006 977.697 32.2098 976.58 27.9677C975.464 23.7255 974.906 20.0416 974.906 16.9158V15.2413C982.944 11.669 992.209 8.65486 1002.7 6.19889C1012.97 3.51966 1022.8 1.62187 1032.17 0.505529C1033.96 5.41746 1034.85 11.2225 1034.85 17.9205C1034.85 21.9394 1034.63 24.7303 1034.18 26.2931C1028.16 26.7397 1018.78 28.1909 1006.05 30.6469C993.549 33.1029 984.953 35.0006 980.264 36.3403ZM1048.49 115.463C1052.73 128.859 1054.85 143.371 1054.85 159C1054.85 170.834 1053.62 182.22 1051.16 193.161C1048.71 204.101 1045.25 213.143 1040.78 220.288C1031.41 222.967 1019.01 225.311 1003.61 227.321C988.203 229.107 971.346 230 953.038 230C949.689 230 947.344 227.544 946.005 222.632C944.665 217.497 943.995 209.571 943.995 198.854C943.995 188.36 944.665 180.546 946.005 175.411C947.121 170.275 949.465 167.708 953.038 167.708C976.928 167.708 994.566 166.368 1005.95 163.689C1004.17 156.098 1001.93 148.618 999.254 141.25C996.799 133.883 995.347 129.417 994.901 127.854L1048.49 115.463ZM1055.18 66.5668C1055.63 69.9158 1053.17 75.3859 1047.82 82.9771C1042.46 90.5682 1037.88 95.7034 1034.08 98.3827C1029.84 96.5965 1024.48 93.5824 1018.01 89.3403C1011.53 84.8749 1006.73 80.856 1003.61 77.2837C1001.38 81.3026 998.473 85.433 994.901 89.6752C991.328 93.9173 988.426 96.8198 986.193 98.3827C981.728 96.3733 976.034 93.0242 969.113 88.3356C962.192 83.4236 957.28 79.2931 954.377 75.9441C955.717 71.2554 959.066 65.0039 964.424 57.1895C969.783 49.375 974.248 45.4678 977.821 45.4678C981.393 45.4678 986.751 48.0354 993.896 53.1706C1001.04 58.0825 1005.39 62.213 1006.96 65.5621C1010.08 59.9803 1013.32 55.2917 1016.67 51.4961C1020.02 47.4773 1023.03 45.4678 1025.71 45.4678C1029.28 45.4678 1034.87 48.2587 1042.46 53.8404C1050.27 59.1989 1054.51 63.441 1055.18 66.5668Z" fill="url(#paint0_linear_27_28)"/>
<rect x="293" y="263" width="76" height="76" rx="25.73" fill="url(#paint1_linear_27_28)"/>
<rect x="393" y="263" width="76.9268" height="76" rx="25.73" fill="url(#paint2_linear_27_28)"/>
<rect x="493.927" y="263" width="76" height="76" rx="25.73" fill="url(#paint3_linear_27_28)"/>
<defs>
<linearGradient id="paint0_linear_27_28" x1="532.5" y1="39" x2="532.5" y2="230" gradientUnits="userSpaceOnUse">
<stop stop-color="#66BFFF"/>
<stop offset="1" stop-color="#135CBA"/>
</linearGradient>
<linearGradient id="paint1_linear_27_28" x1="331" y1="263" x2="331" y2="339" gradientUnits="userSpaceOnUse">
<stop stop-color="#479AE5"/>
<stop offset="1" stop-color="#135BBA"/>
</linearGradient>
<linearGradient id="paint2_linear_27_28" x1="431.463" y1="263" x2="431.463" y2="339" gradientUnits="userSpaceOnUse">
<stop stop-color="#479AE5"/>
<stop offset="1" stop-color="#135BBA"/>
</linearGradient>
<linearGradient id="paint3_linear_27_28" x1="531.927" y1="263" x2="531.927" y2="339" gradientUnits="userSpaceOnUse">
<stop stop-color="#479AE5"/>
<stop offset="1" stop-color="#135BBA"/>
</linearGradient>
</defs>
</svg>
